<svg xmlns="http://www.w3.org/2000/svg" width="24" height="24" viewBox="0 0 24 24">
    <path fill="#222" d="M11.767 3.057c.146-.076.32-.076.466 0l9.5 5 .01.006.038.024c.148.098.217.248.22.399L22 8.5v2c0 .276-.224.5-.5.5H20L20 19.657c.331.065.658.134.982.207l.636.15c.268.067.432.337.366.606-.066.268-.337.431-.605.365-2.867-.706-6.086-1.082-9.424-1.082-3.308 0-6.496.368-9.338 1.062-.268.065-.539-.1-.604-.368-.066-.268.099-.538.367-.604.529-.129 1.068-.247 1.618-.353V11H2.5c-.245 0-.449-.177-.491-.41L2 10.5V8.463c.007-.124.06-.245.164-.336l.018-.013c.025-.021.053-.04.085-.057l-.056.034c.015-.01.03-.02.047-.029l.009-.005zM19 11h-1v8.32c.337.047.67.099 1 .154V11zM6 11H5v8.46c.33-.055.663-.106.999-.153V11zm11 0h-3.5v7.93c1.19.04 2.36.128 3.5.26V11zm-6.5 0H7v8.18c1.14-.13 2.311-.215 3.5-.254V11zm2 0h-1v7.906l.456-.003c.182 0 .363.001.544.003V11zM21 9H3v1h18V9zm-9-4.935L4.523 8h14.953L12 4.065z"/>
</svg>
