<svg xmlns="http://www.w3.org/2000/svg" xmlns:xlink="http://www.w3.org/1999/xlink" width="32" height="32" viewBox="0 0 32 32">
    <defs>
        <path id="prefix__a" d="M20.667 0c3.313 0 6 2.686 6 6v14.667c0 3.313-2.687 6-6 6H6c-3.314 0-6-2.687-6-6V6c0-3.314 2.686-6 6-6h14.667zm0 1.333H6c-2.577 0-4.667 2.09-4.667 4.667v14.667c0 2.577 2.09 4.666 4.667 4.666h14.667c2.577 0 4.666-2.089 4.666-4.666V6c0-2.577-2.089-4.667-4.666-4.667zm-1.484 5.363c.583-.152 1.144-.378 1.671-.675.529-.298 1.148.208.962.786-.024.072-.042.13-.084.265-.106.341-.2.619-.298.858.115-.022.211-.052.31-.093.611-.255 1.18.443.807.99-.446.655-.99 1.235-1.61 1.72.547 7.407-8.397 13.392-16.603 8.734-.632-.359-.316-1.326.405-1.242 1.13.13 2.264-.054 3.284-.517-1.062-.444-1.942-1.285-2.428-2.385-.155-.351.015-.708.301-.861-.831-.78-1.36-1.872-1.42-3.076-.02-.392.281-.672.616-.699-.544-1.206-.509-2.648.207-3.864.239-.404.81-.442 1.1-.073C7.855 8.418 9.966 9.608 12.267 9.9c-.006-1.302.584-2.772 1.782-3.478 1.585-1.11 3.699-.978 5.133.274zm-4.412.846c-.946.56-1.334 1.997-1.103 2.927.106.43-.23.843-.672.827-2.612-.098-5.073-1.2-6.892-3.053-.2 1.077.23 2.214 1.172 2.867.492.341.32 1.107-.27 1.206-.303.05-.608.05-.904.003.406.878 1.2 1.543 2.178 1.757.589.13.718.91.203 1.222-.288.174-.6.293-.923.354.594.563 1.388.891 2.232.886.63-.003.913.789.424 1.185-.835.676-1.793 1.16-2.807 1.432 6.6 1.957 12.857-3.036 12.17-8.84-.029-.244.079-.483.28-.624.161-.114.318-.235.468-.363-.106.003-.192.008-.276.014-.713.056-1.001-.898-.377-1.247.108-.06.198-.133.28-.234-.274.087-.553.16-.835.22-.226.046-.46-.027-.62-.194-.971-1.022-2.532-1.18-3.728-.345z"/>
    </defs>
    <g fill="none" fill-rule="evenodd" transform="translate(2.667 2.667)">
        <use fill="#FFF" xlink:href="#prefix__a"/>
    </g>
</svg>
