<?xml version="1.0" encoding="UTF-8"?>
<svg width="48px" height="48px" viewBox="0 0 48 48" version="1.1" xmlns="http://www.w3.org/2000/svg" xmlns:xlink="http://www.w3.org/1999/xlink">
    <title>Artboard</title>
    <defs>
        <filter color-interpolation-filters="auto" id="filter-1">
            <feColorMatrix in="SourceGraphic" type="matrix" values="0 0 0 0 0.800000 0 0 0 0 0.000000 0 0 0 0 0.000000 0 0 0 1.000000 0"></feColorMatrix>
        </filter>
        <path d="M23,1 C25.756,1 28,3.242 28,6 C28,6.02 27.996,6.036 27.996,6.052 C32.446,7.906 35.478,12.062 35.91,16.844 C37.118,16.458 38,15.336 38,14 C38,13.448 38.448,13 39,13 C39.552,13 40,13.448 40,14 C40,16.432 38.256,18.458 35.954,18.904 C35.608,23.908 32.428,28.144 28,29.998 L28,29.998 L28,34 C28,34.552 27.552,35 27,35 C26.448,35 26,34.552 26,34 L26,34 L26,30.636 C25.036,30.866 24.034,31 23,31 L23,31 L15,31 C13.97,31 12.972,30.846 12,30.614 L12,30.614 L12,34 C12,34.552 11.552,35 11,35 C10.448,35 10,34.552 10,34 L10,34 L10,30 L10,30 L10.006,29.97 C6.89,28.67 4.332,26.212 3.01,23 L3.01,23 L1,23 C0.448,23 0,22.552 0,22 L0,22 L0,14 C0,13.448 0.448,13 1,13 L1,13 L3.008,13 C4.076,10.392 5.966,8.224 8.408,6.816 C9.14,5.092 11.276,1 15,1 C15.552,1 16,1.448 16,2 L16,2 L16,5 L18.102,5 C18.566,2.72 20.586,1 23,1 Z M14,3.176 C11.784,3.966 10.412,7.172 10.13,7.886 C10.044,8.106 9.882,8.288 9.674,8.4 C7.312,9.674 5.526,11.78 4.646,14.326 C4.506,14.73 4.126,15 3.7,15 L3.7,15 L2,15 L2,21 L3.7,21 C4.126,21 4.504,21.27 4.644,21.672 C6.168,26.054 10.33,29 15,29 L15,29 L23,29 C29.066,29 34,24.064 34,18 C34,13.672 31.456,9.778 27.574,8.01 C27.53,8.112 27.468,8.206 27.416,8.302 C27.37,8.394 27.326,8.486 27.272,8.574 C27.166,8.748 27.044,8.912 26.918,9.072 C26.88,9.12 26.85,9.174 26.81,9.22 C26.64,9.418 26.456,9.6 26.258,9.77 C26.19,9.828 26.116,9.876 26.044,9.934 C25.904,10.042 25.76,10.146 25.61,10.24 C25.524,10.292 25.436,10.34 25.348,10.388 C25.198,10.47 25.042,10.542 24.884,10.61 C24.792,10.648 24.7,10.686 24.606,10.718 C24.432,10.78 24.254,10.826 24.074,10.868 C23.99,10.884 23.906,10.91 23.82,10.924 C23.552,10.97 23.278,11 23,11 C22.674,11 22.358,10.962 22.05,10.904 C21.948,10.884 21.854,10.85 21.754,10.824 C21.552,10.772 21.352,10.714 21.16,10.638 C21.048,10.596 20.946,10.542 20.838,10.488 C20.668,10.406 20.504,10.32 20.348,10.222 C20.242,10.156 20.142,10.084 20.042,10.01 C19.898,9.902 19.76,9.79 19.626,9.666 C19.536,9.582 19.446,9.498 19.362,9.406 C19.236,9.274 19.124,9.13 19.012,8.984 C18.94,8.888 18.866,8.794 18.8,8.694 C18.694,8.528 18.604,8.35 18.516,8.17 C18.47,8.074 18.416,7.984 18.376,7.886 C18.266,7.622 18.18,7.344 18.118,7.056 C18.114,7.04 18.106,7.022 18.102,7.002 L18.102,7.002 L18.1,7 L15,7 C14.448,7 14,6.552 14,6 L14,6 Z M9,13 C9.552,13 10,13.448 10,14 L10,14 L10,16 C10,16.552 9.552,17 9,17 C8.448,17 8,16.552 8,16 L8,16 L8,14 C8,13.448 8.448,13 9,13 Z M27,13 C27.552,13 28,13.448 28,14 C28,14.552 27.552,15 27,15 L27,15 L19,15 C18.448,15 18,14.552 18,14 C18,13.448 18.448,13 19,13 L19,13 Z M23,3 C21.346,3 20,4.346 20,6 C20,7.654 21.346,9 23,9 C24.444,9 25.712,7.93 25.954,6.512 C25.986,6.336 26,6.176 26,6 C26,4.346 24.654,3 23,3 Z" id="path-2"></path>
    </defs>
    <g id="Artboard" stroke="none" stroke-width="1" fill="none" fill-rule="evenodd">
        <g id="icon-color" filter="url(#filter-1)">
            <g transform="translate(4.000000, 6.000000)">
                <mask id="mask-3" fill="white">
                    <use xlink:href="#path-2"></use>
                </mask>
                <use id="Icon-color" fill="#EC0000" xlink:href="#path-2"></use>
            </g>
        </g>
    </g>
</svg>