<?xml version="1.0" encoding="UTF-8"?>
<svg width="48px" height="48px" viewBox="0 0 48 48" version="1.1" xmlns="http://www.w3.org/2000/svg" xmlns:xlink="http://www.w3.org/1999/xlink">
    <title>Artboard</title>
    <g id="Artboard" stroke="none" stroke-width="1" fill="none" fill-rule="evenodd">
        <g id="Icons-/-Santander-/-ic_std_Open_Finance" fill="#CC0000">
            <path d="M25.0657525,3.12253112 C25.6166919,3.16105656 26.0320855,3.63891223 25.9935601,4.18985164 C25.9550347,4.74079106 25.477179,5.15618466 24.9262396,5.11765922 C14.4583908,4.38567592 5.37913292,12.2781543 4.64714962,22.7460032 C3.91516633,33.213852 11.8076448,42.2931098 22.2754936,43.0250931 C32.7433424,43.7570764 41.8226002,35.864598 42.5545835,25.3967492 C42.593109,24.8458098 43.0709646,24.4304162 43.6219041,24.4689416 C44.1728435,24.507467 44.5882371,24.9853227 44.5497116,25.5362621 C43.7406775,37.1059898 33.7057083,45.8292554 22.1359806,45.0202212 C10.566253,44.2111871 1.84298735,34.1762179 2.65202152,22.6064902 C3.46105569,11.0367626 13.4960249,2.31349695 25.0657525,3.12253112 Z M24.2649072,12.0713762 C24.3420612,12.4535523 24.4686475,12.828114 24.6448816,13.1852432 L24.7863694,13.4496681 L28.0825147,19.1502567 C28.4562292,19.7965016 28.6582257,20.5114722 28.6894854,21.2321816 C32.2183261,22.1526292 34.6534982,24.1077406 34.6534982,26.3709276 C34.6534982,29.5191496 29.9407141,32.0713762 24.1272525,32.0713762 C18.3136506,32.0713762 13.6008666,29.5191496 13.6008666,26.3709276 C13.6008666,24.1078805 16.036319,22.153329 19.5648794,21.2327415 C19.5319843,21.9906986 19.6879314,22.7549596 20.0335084,23.4523849 L20.1719903,23.7106436 L23.4679954,29.4113721 C23.6690667,29.7590594 23.8204365,30.1267234 23.9223201,30.5044742 L23.9894575,30.7895241 L24.1272525,30.5512939 C24.9022966,29.210801 24.9410488,27.5748373 24.2435091,26.2049174 L24.1272525,25.990907 L21.4823741,21.4161031 C20.7173122,20.0817104 20.6793103,18.4576272 21.3687262,17.0946449 L21.4903643,16.8699933 L21.6280191,16.6317631 C21.7052852,17.0139392 21.8318042,17.3885009 22.0080068,17.7456301 L22.1494812,18.010055 L26.1048836,24.8508453 C26.3059549,25.1986446 26.4573247,25.5663309 26.5592083,25.9440862 L26.6263457,26.2291372 L26.7641406,25.990907 C27.5390516,24.6504142 27.5777971,23.0144504 26.8803773,21.6445305 L26.7641406,21.4305201 L24.1271123,16.8698533 C23.3522013,15.5293605 23.3134558,13.8936494 24.0109958,12.5236347 L24.1272525,12.3096064 L24.2649072,12.0713762 Z M44.8734002,8.94731601 C45.2340368,9.30795259 45.2617752,9.87444603 44.9566174,10.2667562 L44.8733926,10.360985 L38.0976843,17.1366933 L41.3391833,17.1366757 C41.8913976,17.1366726 42.3386889,17.5839639 42.3386859,18.1361784 C42.3386846,18.4122856 42.2268597,18.6621633 42.0460085,18.8430145 C41.8952991,18.9937239 41.6966547,19.0964981 41.474842,19.1265707 L41.3391724,19.1356919 L35.6862221,19.1357226 C35.5552439,19.1358959 35.4248695,19.10958 35.3019158,19.0585873 C35.0577341,18.9572919 34.8634247,18.7629824 34.7621291,18.5188006 C34.7281339,18.4368315 34.7051063,18.3515642 34.6935831,18.2650187 L34.6849938,18.1344943 L34.6850245,12.481544 C34.6850273,11.9293297 35.1323237,11.4820336 35.684538,11.4820304 C36.1973084,11.4820275 36.6196096,11.867702 36.6773197,12.3649322 L36.6840407,12.4815331 L36.6840231,15.7230321 L43.4597314,8.94732382 C43.8504252,8.55662995 44.4827106,8.55662638 44.8734002,8.94731601 Z M38.5101964,3.00000085 C38.6411748,2.99982767 38.771549,3.0261434 38.8945027,3.07713646 C39.1386844,3.17843187 39.3329938,3.37274132 39.4342894,3.61692312 C39.4682846,3.69889227 39.4913122,3.78415948 39.5028354,3.87070498 L39.5114247,4.00122947 L39.511394,9.65417975 C39.5113927,9.93028698 39.3995679,10.1801646 39.2187166,10.3610158 C39.0378654,10.5418671 38.7879876,10.6536918 38.5118805,10.6536933 C37.9991101,10.6536962 37.5768089,10.2680217 37.5190988,9.77079153 L37.5123778,9.65419059 L37.5123954,6.41269163 L30.7366872,13.1883999 C30.3459933,13.5790938 29.7137078,13.5790972 29.3230181,13.1884076 C28.9623815,12.827771 28.9346432,12.2612776 29.239801,11.8689674 L29.3230258,11.7747386 L36.0987341,4.99903028 L32.8572351,4.99904787 C32.3050208,4.999051 31.8577296,4.5517595 31.8577324,3.99954518 C31.8577351,3.48677474 32.2434141,3.06446941 32.7406449,3.00675385 L32.857246,3.00003166 L38.5101964,3.00000085 Z" id="Combined-Shape"></path>
        </g>
    </g>
</svg>