<?xml version="1.0" encoding="UTF-8"?>
<svg width="48px" height="48px" viewBox="0 0 48 48" version="1.1" xmlns="http://www.w3.org/2000/svg" xmlns:xlink="http://www.w3.org/1999/xlink">
    <title>Artboard Copy 40</title>
    <g id="Artboard-Copy-40" stroke="none" stroke-width="1" fill="none" fill-rule="evenodd">
        <g id="C.-People-&amp;-Nature/a.-People/CA180-team-together-|-ðŸ”-PEOPLE,-profile,-together,-perfiles,-juntos" fill="#CC0000">
            <path d="M23,8 C31.2842847,8 38,14.7157153 38,23 C38,23.0384287 37.9978324,23.0763511 37.9936127,23.1136516 L39.1593511,23.4292314 C40.7773462,23.8963081 41.912001,25.3365096 41.9968886,27.0029847 L42.002,27.204 L42.002,27.9026456 L42,31.0006456 C43.2143504,31.9129509 44,33.3651725 44,35 C44,37.7602847 41.7602847,40 39,40 C37.3656209,40 35.9137475,39.2147813 35.0012494,38.0012133 L12.9979774,37.999998 L12.9371222,38.0814794 C12.0216347,39.2492921 10.5980596,40 9,40 C6.23971525,40 4,37.7602847 4,35 L4.003,34.812 L4,34.7456396 L4,25 L4.00508742,24.8235847 C4.07625863,23.5930683 4.88724192,22.562757 6.00051456,22.1701734 L6,12.006 C6,9.86075418 7.68665236,8.10909438 9.80607455,8.0049031 L10.006,8 L23,8 Z M39,32 C37.3442847,32 36,33.3442847 36,35 C36,36.6557153 37.3442847,38 39,38 C40.6557153,38 42,36.6557153 42,35 C42,33.3442847 40.6557153,32 39,32 Z M9,32 C7.34428475,32 6,33.3442847 6,35 C6,36.6557153 7.34428475,38 9,38 C10.6557153,38 12,36.6557153 12,35 C12,33.3442847 10.6557153,32 9,32 Z M17.999,10 L10.006,10 C8.94863544,10 8.08209496,10.8184785 8.00550319,11.8563107 L8,12.006 L8,23 C8,23.5128358 7.61395981,23.9355072 7.11662113,23.9932723 L7,24 C6.48583584,24 6.06430308,24.3848067 6.0067074,24.8831146 L6,25 L5.99978558,31.0004985 C6.83562794,30.3723429 7.87454277,30 9,30 C11.7602847,30 14,32.2397153 14,35 C14,35.3427436 13.9654678,35.677461 13.8996948,36.0008609 L34.1003052,36.0008609 C34.0345322,35.677461 34,35.3427436 34,35 C34,32.2397153 36.2397153,30 39,30 C39.3427436,30 39.677461,30.0345322 40.0008609,30.1003052 L40.002,27.902 L40.002,27.204 C40.002,26.398872 39.5013081,25.6845395 38.7697162,25.4051523 L38.620399,25.3551761 L22.4600728,20.9750876 C19.9075595,20.282329 18.1115141,18.014062 18.0050068,15.3890982 L18,15.142 L17.999,10 Z M23,10 L19.999,10 L20,15.142 C20,16.9003015 21.1340272,18.4482162 22.7902194,18.987161 L22.983601,19.0448239 L35.9930188,22.5698831 C35.769484,15.6934555 30.2056128,10.1671537 23.3141487,10.0037214 L23,10 Z" id="Icon"></path>
        </g>
    </g>
</svg>