<?xml version="1.0" encoding="UTF-8"?>
<svg width="48px" height="48px" viewBox="0 0 48 48" version="1.1" xmlns="http://www.w3.org/2000/svg" xmlns:xlink="http://www.w3.org/1999/xlink">
    <title>Artboard Copy 44</title>
    <g id="Artboard-Copy-44" stroke="none" stroke-width="1" fill="none" fill-rule="evenodd">
        <g id="A.-Finance/c.-Money-&amp;-operations/AC370-savings-|-ðŸ”-savings,-ahorros,-piggy-bank,-hucha" fill="#CC0000">
            <path d="M13.3340206,11.9603705 C21.181572,4.72705355 33.4083503,4.88490476 41.0667836,12.4737717 C41.4603518,12.8637649 41.4618019,13.4994193 41.0700171,13.8912041 L41.0700171,13.8912041 L28.1950896,26.7649022 L38.3717588,36.9985376 C38.7312502,37.3600114 38.7574199,37.9273166 38.4513174,38.3187675 L38.3678701,38.4127458 C37.9762734,38.8021947 37.3431108,38.8004537 36.9536619,38.408857 L36.9536619,38.408857 L26.7810896,28.1789022 L22.1601246,32.8020537 C22.1309466,32.8693127 22.0939955,32.9340778 22.0492345,32.9950052 L21.9686474,33.0914473 C21.8731244,33.1923312 21.7615781,33.2689301 21.6417308,33.3210332 L13.9100171,41.0512041 C13.5269336,41.4342876 12.9084592,41.4426438 12.5151657,41.07005 C12.4270641,40.9834645 12.4270641,40.9834645 12.3798247,40.9331743 C4.86023794,33.2847854 4.74466396,21.122297 11.9191371,13.3753759 L9.73580356,11.1910041 C9.34527927,10.8004798 9.34527927,10.1673148 9.73580356,9.77679051 C10.1263279,9.38626622 10.7594928,9.38626622 11.1500171,9.77679051 L11.1500171,9.77679051 Z M12.204181,16.1608813 L12.069728,16.3427767 C7.15400235,23.1019499 7.51962285,32.5291771 13.2234509,38.9093431 L13.2234509,38.9093431 L19.7737481,32.3598835 C15.4916485,27.964662 12.8273451,22.2534942 12.204181,16.1608813 Z M14.1561542,13.9421589 L14.1222045,13.975062 C14.1003815,13.9984436 14.0894701,14.0101344 14.0814467,14.0185271 L14.0580171,14.0422041 L14.0270624,14.0747288 C14.0588618,14.1660801 14.0778387,14.2636267 14.0817655,14.365307 C14.3222563,20.5925621 16.8611071,26.4948462 21.1877581,30.945195 L26.0690896,26.0629022 L26.0775506,26.0546488 C26.0804347,26.0517805 26.0833319,26.0489335 26.086242,26.0461076 L30.8971524,21.2360284 C26.4947757,16.8985329 20.6453376,14.3168507 14.4516082,14.0024111 C14.3479093,13.9971466 14.248704,13.9762649 14.1561542,13.9421589 Z M38.9260668,13.2067272 C32.5022901,7.50239778 23.0038597,7.16435396 16.2418645,12.1436977 C22.2999517,12.8304059 27.9607379,15.5309389 32.3105093,19.8208964 Z" id="Icon"></path>
        </g>
    </g>
</svg>