<?xml version="1.0" encoding="UTF-8"?>
<svg width="48px" height="48px" viewBox="0 0 48 48" version="1.1" xmlns="http://www.w3.org/2000/svg" xmlns:xlink="http://www.w3.org/1999/xlink">
    <title>Artboard Copy 38</title>
    <g id="Artboard-Copy-38" stroke="none" stroke-width="1" fill="none" fill-rule="evenodd">
        <g id="C.-People-&amp;-Nature/a.-People/CA180-team-together-|-ðŸ”-PEOPLE,-profile,-together,-perfiles,-juntos" fill="#CC0000">
            <path d="M13,24.0459259 C13.5522847,24.0459259 14,24.4936411 14,25.0459259 L14,26.0457827 L19.398,26.0457827 L22.748549,24.3418534 C24.0793428,23.8743326 25.021165,24.0028158 26.7548999,24.6739739 L27.0513907,24.7908492 L34,27.5707827 L34,25.0459259 C34,24.53309 34.3860402,24.1104187 34.8833789,24.0526536 L35,24.0459259 L43,24.0459259 C43.5522847,24.0459259 44,24.4936411 44,25.0459259 L44,25.0459259 L44,38.0739259 C44,40.2682106 42.2222847,42.0459259 40.028,42.0459259 L40.028,42.0459259 L35,42.0459259 C34.4477153,42.0459259 34,41.5982106 34,41.0459259 L34,41.0459259 L34,39.4767827 L30.700716,41.8758598 C26.7147625,44.6318255 21.4666943,44.7290632 17.5451592,42.049119 L17.2798678,41.8620907 L14,39.4657827 L14,41.0459259 C14,41.5982106 13.5522847,42.0459259 13,42.0459259 L7.972,42.0459259 C5.77771525,42.0459259 4,40.2682106 4,38.0739259 L4,25.0459259 C4,24.4936411 4.44771525,24.0459259 5,24.0459259 L13,24.0459259 Z M16.683866,28.0462472 L14,28.0457827 L14,37.0037827 L18.4560401,40.2444941 C21.6206639,42.5452518 25.9450081,42.5746438 29.2824732,40.4192603 L29.5438678,40.244561 L32.593,38.0257827 L24.4248194,30.6812223 C24.3584818,30.7125003 24.2875332,30.7461869 24.2120477,30.7822948 L24.0954262,30.8382743 C23.3439218,31.2002234 22.4779615,31.6422431 21.5095423,32.1670187 C19.5189308,33.2430989 17.3948826,33.1600665 16.4197085,31.5071283 C15.739246,30.3588478 15.8647307,29.1322247 16.683866,28.0462472 Z M12,26.0459259 L6,26.0459259 L6,38.0739259 C6,39.1636411 6.88228475,40.0459259 7.972,40.0459259 L12,40.0459259 L12,26.0459259 Z M42,26.0459259 L36,26.0459259 L35.9998943,37.4937 C36.0000946,37.5043791 36.0001241,37.5150558 35.9999835,37.5257255 L36,40.0459259 L40.028,40.0459259 C41.1177153,40.0459259 42,39.1636411 42,38.0739259 L42,38.0739259 L42,26.0459259 Z M23.6494363,26.1399912 L23.5351111,26.1757605 L19.4470602,28.2632365 C18.0811704,29.0667865 17.7535649,29.8349223 18.1412823,30.4891991 C18.4426096,30.9999533 19.3939452,31.0371425 20.5575654,30.408116 C21.5535385,29.8684086 22.4478282,29.4119284 23.2275738,29.0363774 C23.6998045,28.8089357 24.0317034,28.6578717 24.210412,28.5808978 C24.5290421,28.4436565 24.8927652,28.4823436 25.1734926,28.6759168 L25.2746247,28.7557259 L34,36.6007827 L34,29.7247827 L26.3081084,26.647602 C24.8825267,26.076477 24.2930659,25.955143 23.6494363,26.1399912 Z M23.0071221,3.99778271 C23.5199579,3.99778271 23.9426292,4.3838229 24.0003944,4.88116158 L24.0071221,4.99778271 L24.0074092,5.93312438 C24.4708375,6.02636113 24.9306445,6.1662234 25.382295,6.34255017 C25.8942773,6.54243075 26.2900791,6.7448343 26.5308403,6.89052565 C27.0033482,7.1764535 27.1546012,7.79128715 26.8686733,8.26379504 C26.5827455,8.73630294 25.9679118,8.88755594 25.4954039,8.60162809 C25.346165,8.51131944 25.0497169,8.35972299 24.6549491,8.20560356 C24.006206,7.95233082 23.3482083,7.80207687 22.7371221,7.80207687 C21.5235926,7.80207687 20.7211221,8.35431853 20.7211221,9.02007687 C20.7211221,9.75734139 21.3272411,10.2309064 23.2224513,10.9984803 L23.466116,11.0959987 L23.6779968,11.1797722 C26.4333663,12.2696184 27.4751221,13.0069584 27.4751221,14.8080769 C27.4751221,16.6944685 26.1111296,17.8429421 24.0080768,18.1267576 L24.0071221,18.9932428 C24.0071221,19.5455276 23.5594068,19.9932428 23.0071221,19.9932428 C22.4942863,19.9932428 22.0716149,19.6072027 22.0138498,19.109864 L22.0071221,18.9932428 L22.0066521,18.1460072 C21.2130097,18.0572583 20.5152605,17.8539615 19.9137598,17.5636945 C19.3874726,17.3097234 19.0263706,17.0389604 18.8193019,16.8242374 C18.4359276,16.4266917 18.4474158,15.793631 18.8449615,15.4102567 C19.2425072,15.0268824 19.875568,15.0383706 20.2589423,15.4359163 C20.3088736,15.4876933 20.4808966,15.6166803 20.7829843,15.7624592 C21.3390521,16.0308016 22.0477514,16.1960769 22.9291221,16.1960769 C24.6630293,16.1960769 25.4751221,15.6690385 25.4751221,14.8080769 C25.4751221,14.2500102 24.9328112,13.8429174 23.1781748,13.1338164 L22.942379,13.039575 L22.7301282,12.9556551 C19.8625121,11.8207516 18.7211221,10.9845097 18.7211221,9.02007687 C18.7211221,7.27910335 20.1535402,6.09581652 22.0069558,5.8497181 L22.0071221,4.99778271 C22.0071221,4.44549796 22.4548373,3.99778271 23.0071221,3.99778271 Z" id="Icon"></path>
        </g>
    </g>
</svg>