<?xml version="1.0" encoding="UTF-8"?>
<svg width="48px" height="48px" viewBox="0 0 48 48" version="1.1" xmlns="http://www.w3.org/2000/svg" xmlns:xlink="http://www.w3.org/1999/xlink">
    <title>Artboard Copy 37</title>
    <g id="Artboard-Copy-37" stroke="none" stroke-width="1" fill="none" fill-rule="evenodd">
        <g id="C.-People-&amp;-Nature/a.-People/CA180-team-together-|-ðŸ”-PEOPLE,-profile,-together,-perfiles,-juntos" fill="#CC0000">
            <path d="M33.446,31.0004 C39.4747836,31.0004 44,34.1162885 44,38.3844 L44,40.1164 C44,42.2409956 42.3981667,44.0004 40.3738168,44.0004 L7.624,43.9944 C5.60139495,43.9944 4,42.2345512 4,40.1104 L4,38.3804 C4,34.2281168 8.87931812,31.0004 14.548,31.0004 C15.1731768,31.0004 15.8959181,31.0774385 16.7914291,31.2225093 C17.0863936,31.2702929 17.3907965,31.3237788 17.7646489,31.3925318 C17.7190998,31.3841551 17.990582,31.4347269 18.2912059,31.4903305 L18.5176396,31.5321343 C18.7033907,31.5663529 18.872411,31.5972718 18.954415,31.6117278 C19.856845,31.7715752 20.7735833,31.9859988 21.7140867,32.2544253 C21.8305937,32.2884179 21.9207805,32.3155361 22.1200872,32.376111 C22.2881138,32.4272427 22.2881138,32.4272427 22.4511314,32.4760889 C23.1398521,32.6807141 23.5685493,32.7664 23.996,32.7664 C24.407857,32.7664 25.010289,32.6333838 26.123982,32.3161693 L26.2979643,32.2664655 C26.9177202,32.089039 27.0819273,32.0428393 27.3632341,31.9693972 C29.6225029,31.3741718 31.7703671,31.0004 33.446,31.0004 Z M33.446,33.0004 C31.9789473,33.0004 29.9797207,33.3483058 27.8706159,33.9039666 C27.608647,33.9723625 27.4505512,34.0168427 26.84842,34.1892235 L26.6718536,34.2396653 C25.3652416,34.611829 24.6651881,34.7664 23.996,34.7664 C23.3305267,34.7664 22.7404807,34.6484645 21.8815224,34.3932602 C21.7075445,34.3411286 21.7075445,34.3411286 21.5381489,34.2895759 C21.3432571,34.2303523 21.2610378,34.2056299 21.1595688,34.1760068 C20.2886954,33.9274698 19.4384288,33.7285939 18.6063947,33.5812153 C18.4014259,33.545083 17.6934959,33.4137345 17.4670662,33.3715678 L17.398534,33.3587699 C17.3953187,33.3581601 17.3965866,33.3583831 17.4029073,33.3595455 C17.0418333,33.2931426 16.7504379,33.2419421 16.471603,33.1967715 C15.6728518,33.0673755 15.0445164,33.0004 14.548,33.0004 C9.85207816,33.0004 6,35.5485875 6,38.3804 L6,40.1104 C6,41.1698867 6.75027554,41.9944 7.62418321,41.9944 L40.374,42.0004 C41.249544,42.0004 42,41.1761222 42,40.1164 L42,38.3844 C42,35.4139977 38.4947232,33.0004 33.446,33.0004 Z M23.9902,3.9996 C29.3584794,3.9996 34.0103551,8.27727922 33.1910404,13.3190482 L33.1910404,13.3190482 L32.1608502,21.8778361 C31.5258584,26.0564913 28.2482977,28.8776 23.9902,28.8776 C19.735821,28.8776 16.4688102,26.0582592 15.8293596,21.8470482 L15.8293596,21.8470482 L14.8091881,13.360247 C13.9817926,8.27674628 18.6235888,3.9996 23.9902,3.9996 Z M23.9902,5.9996 C19.7557168,5.9996 16.1745629,9.29942585 16.7890404,13.0801518 L16.7890404,13.0801518 L17.8108502,21.5773639 C18.2978489,24.7821298 20.7260491,26.8776 23.9902,26.8776 C27.2591649,26.8776 29.6969832,24.7792863 30.1793596,21.6081518 L30.1793596,21.6081518 L31.2111215,13.0393627 C31.8179148,9.3014523 28.227228,5.9996 23.9902,5.9996 Z" id="Icon"></path>
        </g>
    </g>
</svg>