<?xml version="1.0" encoding="UTF-8"?>
<svg width="48px" height="48px" viewBox="0 0 48 48" version="1.1" xmlns="http://www.w3.org/2000/svg" xmlns:xlink="http://www.w3.org/1999/xlink">
    <title>Artboard Copy 45</title>
    <g id="Artboard-Copy-45" stroke="none" stroke-width="1" fill="none" fill-rule="evenodd">
        <g id="A.-Finance/c.-Money-&amp;-operations/AC370-savings-|-ðŸ”-savings,-ahorros,-piggy-bank,-hucha" fill="#CC0000">
            <path d="M38.5002463,23.3159014 C40.3681216,23.3159014 41.8953269,24.7821272 41.9950651,26.6268298 L42.0002463,26.8189666 L42.0002463,42.9991242 C42.0002463,43.5518927 41.5525311,44 41.0002463,44 C40.4874105,44 40.0647391,43.6136217 40.006974,43.1158475 L40.0002463,42.9991242 L40.0002463,26.8189666 C40.0002463,25.9905265 39.3279616,25.3176529 38.5002463,25.3176529 C37.7212202,25.3176529 37.0798764,25.9136932 37.0071198,26.6744914 L37.0002463,26.8189666 L37.0002463,28 C37.0002463,28.5527684 36.5525311,29.0008758 36.0002463,29.0008758 C35.4874105,29.0008758 35.0647391,28.6144975 35.006974,28.1167233 L35.0002463,28 L35.0002463,26.8189666 C35.0002463,24.8849896 36.5679616,23.3159014 38.5002463,23.3159014 Z M31.0002463,31.9894908 C31.5130821,31.9894908 31.9357535,32.3758691 31.9935186,32.8736433 L32.0002463,32.9903666 L32.0002463,42.9991242 C32.0002463,43.5518927 31.5525311,44 31.0002463,44 C30.4874105,44 30.0647391,43.6136217 30.006974,43.1158475 L30.0002463,42.9991242 L30.0002463,32.9903666 C30.0002463,32.4375981 30.4479616,31.9894908 31.0002463,31.9894908 Z M33.5642463,15.7012386 C36.1389192,15.7012386 37.8196724,17.0131378 37.9886352,19.0527153 L38.0002463,19.2523458 L38.0002463,20.9798574 C38.0002463,21.5326258 37.5525311,21.9807331 37.0002463,21.9807331 C36.4874105,21.9807331 36.0647391,21.5943549 36.006974,21.0965806 L36.0002463,20.9798574 L36.0008319,19.2865925 C35.968703,18.3473389 35.2444477,17.7322579 33.6781979,17.7040065 C33.4306129,17.762814 33.0925851,17.8397065 32.7257623,17.9168415 C32.5669488,17.9499693 32.5669488,17.9499693 32.4045891,17.982567 C31.8022935,18.102128 31.3562111,18.1703396 31.0465753,18.1733817 C30.7272564,18.1754045 30.2535357,18.1079394 29.6081465,17.9863717 C29.4324186,17.9528679 29.4324186,17.9528679 29.2606329,17.9187605 C28.870871,17.8407158 28.5127063,17.762897 28.2531002,17.7039075 C26.7758624,17.7290283 26.0956513,18.2684797 26.0086601,19.1274789 L26.0002463,19.2523458 L26.0002463,26.985112 C26.0002463,27.5384661 26.4476854,27.9859877 27.0002463,27.9859877 C27.5130821,27.9859877 27.9357535,28.372366 27.9935186,28.8701402 L28.0002463,28.9868635 L28.0002463,42.9991242 C28.0002463,43.5518927 27.5525311,44 27.0002463,44 C26.4874105,44 26.0647391,43.6136217 26.006974,43.1158475 L26.0002463,42.9991242 L26.0002463,29.8169743 C24.8933271,29.4255773 24.0845544,28.4026064 24.0064444,27.1797866 L24.0002463,26.985112 L24.0008319,19.2180991 C24.0713366,17.1569694 25.6117306,15.7887873 28.1168234,15.7052888 L28.3622463,15.7012386 L28.5879403,15.7270629 C28.8325726,15.7837869 29.2239541,15.8699978 29.6529816,15.955905 C29.814665,15.9880054 29.814665,15.9880054 29.9780499,16.0191552 C30.4923819,16.1160365 30.8894524,16.1725854 31.0304107,16.1716986 C31.1685686,16.1703385 31.5380379,16.113842 32.0154978,16.019062 C32.1657184,15.9889022 32.1657184,15.9889022 32.3145506,15.9578576 C32.6544015,15.8863942 32.9700813,15.8146982 33.200856,15.7600315 L33.3286463,15.7294131 L33.5642463,15.7012386 Z M35.0002463,29.9877393 C35.5130821,29.9877393 35.9357535,30.3741175 35.9935186,30.8718918 L36.0002463,30.988615 L36.0002463,42.9991242 C36.0002463,43.5518927 35.5525311,44 35.0002463,44 C34.4874105,44 34.0647391,43.6136217 34.006974,43.1158475 L34.0002463,42.9991242 L34.0002463,30.988615 C34.0002463,30.4358466 34.4479616,29.9877393 35.0002463,29.9877393 Z M15.5642463,15.6660078 C18.1391883,15.6660078 19.8196978,16.97628 19.9886368,19.0155121 L20.0002463,19.2151132 L20.0002463,26.9498811 C20.0002463,28.1740968 19.267434,29.2276994 18.2170963,29.6950383 L19.9703888,36.7158908 C20.1188939,37.3104314 19.7047795,37.8874551 19.1131609,37.9532829 L19.0002463,37.9595146 L17.9997537,37.959 L18.0002463,42.9638934 C18.0002463,43.4771784 17.6142061,43.9002199 17.1168674,43.9580355 L17.0002463,43.9647692 C16.4874105,43.9647692 16.0647391,43.5783909 16.006974,43.0806167 L16.0002463,42.9638934 L15.9997537,37.959 L13.9997537,37.959 L14.0002463,42.9638934 C14.0002463,43.4771784 13.6142061,43.9002199 13.1168674,43.9580355 L13.0002463,43.9647692 C12.4874105,43.9647692 12.0647391,43.5783909 12.006974,43.0806167 L12.0002463,42.9638934 L11.9997537,37.959 L9.9997537,37.959 L10.0002463,42.9638934 C10.0002463,43.4771784 9.61420611,43.9002199 9.11686743,43.9580355 L9.0002463,43.9647692 C8.48741046,43.9647692 8.06473914,43.5783909 8.00697403,43.0806167 L8.0002463,42.9638934 L7.9997537,37.959 L7.0002463,37.9595146 C6.38794404,37.9595146 5.92907624,37.417464 6.00875827,36.8270413 L6.0301038,36.7158908 L7.7840802,29.6953425 C6.79174916,29.2541115 6.0826854,28.2896402 6.00696329,27.1523096 L6.0002463,26.9498811 L6.00083187,19.1808665 C6.07132688,17.1200213 7.61149467,15.7534511 10.1168013,15.670053 L10.3622463,15.6660078 L10.5879403,15.6918321 C10.8325726,15.7485561 11.2239541,15.834767 11.6529816,15.9206741 C11.814665,15.9527745 11.814665,15.9527745 11.9780499,15.9839243 C12.4923819,16.0808057 12.8894524,16.1373545 13.0304107,16.1364678 C13.1685686,16.1351077 13.5380379,16.0786112 14.0154978,15.9838312 C14.053053,15.9762912 14.0812193,15.9706363 14.1046696,15.96591 L14.2261598,15.9410457 L14.3145506,15.9226268 C14.6544015,15.8511634 14.9700813,15.7794674 15.200856,15.7248007 L15.3286463,15.6941823 L15.5642463,15.6660078 Z M9.9977537,28.908 L9.99457149,28.8426299 C9.99706171,28.8653611 9.99877618,28.8882549 9.99969393,28.9112763 L9.9987537,28.931 L10.0002463,28.9516327 L10.0003778,28.96533 L9.99214672,29.0795094 L9.99214672,29.0795094 L9.9787537,29.149 L9.98669688,29.1167843 C9.98309871,29.1384746 9.97880368,29.1599292 9.97383559,29.1811243 L9.9703888,29.1943807 L8.28102271,35.957763 L17.7194699,35.957763 L16.0301038,29.1943807 L16.026657,29.1811243 C16.0216889,29.1599292 16.0173939,29.1384746 16.0137957,29.1167843 C16.005348,29.0658345 16.0008416,29.0153489 16.0001148,28.96533 L16.0002463,28.9516327 C16.0002463,28.9381341 16.0005133,28.9246979 16.0010423,28.9113291 C16.0017164,28.8882549 16.0034309,28.8653611 16.0059211,28.8426299 L16.014547,28.7820153 L16.014547,28.7820153 C16.0170379,28.7669995 16.0200357,28.7517254 16.0233826,28.7365536 C16.0369952,28.6745449 16.0561181,28.6152101 16.0803115,28.5585624 C16.0863021,28.5450415 16.0926247,28.5311176 16.0992582,28.5173503 C16.1031771,28.508749 16.10741,28.5002785 16.1117584,28.4918776 C16.1410121,28.4357149 16.1754067,28.3822171 16.2146118,28.3323233 C16.2219099,28.3230711 16.2293621,28.3139487 16.2369699,28.3049624 C16.2528718,28.2860452 16.2695262,28.2677341 16.2868675,28.250037 C16.2962318,28.2406913 16.3061168,28.2310187 16.3161978,28.2215529 L16.3681857,28.1757295 L16.3681857,28.1757295 C16.3788443,28.1672681 16.3903805,28.1582365 16.4021158,28.1494567 L16.4285562,28.1301494 L16.4285562,28.1301494 L16.4552669,28.112124 C16.4671924,28.104527 16.4797822,28.0967033 16.4925542,28.0891557 C16.5130187,28.0769862 16.5338576,28.0656926 16.5551864,28.0551114 C16.567614,28.0489107 16.5800767,28.0430218 16.5926772,28.0373861 L16.6607537,28.01 L16.7577107,27.9806406 L16.7577107,27.9806406 C16.7613714,27.9797246 16.7650324,27.9788301 16.7686937,27.977957 C16.7771186,27.9757178 16.7863974,27.9736478 16.7957239,27.9717078 C16.8249729,27.9657899 16.8532837,27.9611435 16.8815248,27.9577281 L16.9404409,27.9525166 L16.9404409,27.9525166 L16.9577537,27.951 L16.986561,27.9506253 L16.986561,27.9506253 L17.0002463,27.9507569 C17.5125533,27.9507569 17.9356779,27.5638872 17.9935105,27.0664991 L18.0002463,26.9498811 L18.0008319,19.2493599 C17.9687301,18.3108996 17.2450588,17.6969633 15.6782085,17.6687732 C15.4306225,17.727581 15.0925903,17.8044746 14.7257623,17.8816106 C14.5669488,17.9147385 14.5669488,17.9147385 14.4045891,17.9473362 C13.8022935,18.0668972 13.3562111,18.1351087 13.0465753,18.1381509 C12.7272564,18.1401736 12.2535357,18.0727086 11.6081465,17.9511409 C11.4324186,17.9176371 11.4324186,17.9176371 11.2606329,17.8835297 C10.8708658,17.805484 10.5126969,17.7276641 10.2530899,17.6686744 C8.77528,17.6937392 8.09557318,18.2321552 8.00865307,19.0903583 L8.0002463,19.2151132 L8.0002463,26.9498811 C8.0002463,27.4626368 8.38677754,27.886132 8.8837304,27.9440152 L9.0002463,27.9507569 L9.01393161,27.9506253 C9.04079674,27.9510163 9.06779659,27.9525006 9.09487678,27.9551107 L9.11891627,27.9577309 L9.11891627,27.9577309 C9.16015459,27.962709 9.20148946,27.9703084 9.24278193,27.9806406 C9.26346899,27.9858169 9.28384295,27.9916034 9.30388943,27.9979761 C9.31737953,28.0020309 9.33057035,28.0065462 9.34363369,28.0113264 C9.36544136,28.0194769 9.38692057,28.0281692 9.4079591,28.0375398 C9.4204159,28.0430218 9.43287856,28.0489107 9.44519691,28.0550465 C9.46663502,28.0656926 9.48747392,28.0769862 9.50780037,28.0889545 L9.52694143,28.100658 L9.52694143,28.100658 L9.54569948,28.1126186 C9.56320941,28.1238171 9.58075338,28.1360542 9.59784042,28.1488065 C9.61011211,28.1582365 9.6216483,28.1672681 9.6329774,28.1765437 C9.65010663,28.1902746 9.66735772,28.2053997 9.68403841,28.2210683 C9.69437585,28.2310187 9.7042608,28.2406913 9.71394285,28.2505638 C9.73096641,28.2677341 9.74762083,28.2860452 9.76356053,28.3049238 C9.7711305,28.3139487 9.77858268,28.3230711 9.78587512,28.3323255 C9.80032804,28.3507094 9.81412203,28.3695848 9.82723911,28.3889102 C9.83518078,28.4004121 9.84305231,28.4125198 9.85066552,28.4248047 C9.86208411,28.4435561 9.87274446,28.4621164 9.88280607,28.4810036 C9.88944105,28.4930304 9.89579938,28.5055699 9.90189824,28.5182579 C9.90818002,28.5318055 9.9143388,28.545389 9.92019559,28.5591111 C9.94437447,28.6152101 9.96349736,28.6745449 9.97697881,28.7359951 C9.98045687,28.7517254 9.98345467,28.7669995 9.98609669,28.7823646 L9.9947537,28.854 L9.9957537,28.865 L9.9977537,28.908 Z M30.9972463,4.0362317 C33.3852739,4.0362317 35.4957384,5.87411297 35.2491793,8.1320133 L35.223132,8.32111354 L34.815325,11.5027148 C34.5177519,13.4142656 32.9689946,14.7155761 30.9972463,14.7155761 C29.0987049,14.7155761 27.5963558,13.5065578 27.2186614,11.681198 L27.1813606,11.475874 L26.7827639,8.35788065 C26.3877178,5.97762015 28.5436946,4.0362317 30.9972463,4.0362317 Z M12.9972463,4 C15.3852739,4 17.4957384,5.83788127 17.2491793,8.0957816 L17.223132,8.28488183 L16.8151112,11.4678502 C16.5148452,13.3793223 14.9678897,14.6813462 12.9972463,14.6813462 C11.0989534,14.6813462 9.59640989,13.4706979 9.21866624,11.6449986 L9.18136057,11.4396422 L8.78276394,8.32164894 C8.3877178,5.94138845 10.5436946,4 12.9972463,4 Z M30.9972463,6.03798324 C29.7222336,6.03798324 28.6738511,6.93609398 28.7461882,7.94056958 L28.761132,8.06662574 L29.1611112,11.1931782 C29.3074072,12.1244885 30.0066758,12.7138246 30.9972463,12.7138246 C31.9329967,12.7138246 32.6109007,12.1904798 32.804743,11.377214 L32.8353606,11.2213862 L33.2447639,8.02985863 C33.4133787,7.01390904 32.3269814,6.03798324 30.9972463,6.03798324 Z M12.9972463,6.00175153 C11.7222336,6.00175153 10.6738511,6.89986228 10.7461882,7.90433787 L10.761132,8.03039403 L11.1611112,11.1569465 C11.307526,12.089013 12.0074283,12.6795946 12.9972463,12.6795946 C13.9317416,12.6795946 14.6094321,12.1554706 14.8044968,11.3411777 L14.8353606,11.1851544 L15.2447639,7.99362692 C15.4133787,6.97767734 14.3269814,6.00175153 12.9972463,6.00175153 Z" id="Icon"></path>
        </g>
    </g>
</svg>